<?xml version="1.0" encoding="utf-8"?>
<!-- Generator: Adobe Illustrator 25.0.0, SVG Export Plug-In . SVG Version: 6.00 Build 0)  -->
<svg version="1.1" id="Capa_1" xmlns="http://www.w3.org/2000/svg" xmlns:xlink="http://www.w3.org/1999/xlink" x="0px" y="0px"
	 viewBox="0 0 1920 1080" style="enable-background:new 0 0 1920 1080;" xml:space="preserve">
<style type="text/css">
	.st0{fill:#4AB4FE;}
	.st1{fill:#FF00FF;}
	.st2{fill:#1461E1;}
</style>
<path class="st0" d="M682.67,380c11.84-1.54,96.11-11.24,139.5,45.5c6.8,8.9,17.85,26.3,22,54c0,0,3.98,34.77-14,67
	c-23.59,42.29-79.89,65.76-142.17,60.17c0,43.16,0,86.33,0,129.49c-0.02,15.83-12.63,28.78-27.83,29.34
	c-15.98,0.59-29.95-12.69-30-29.34c18.19-93.6,24.33-198.92,5.5-311.16c-1.67-9.98-3.51-19.82-5.5-29.5
	C641.24,390.26,659.38,383.03,682.67,380z M698.16,429.5c-33.62,24.57-31.68,108.59,0,131c34.5,24.41,104.21-24.28,103.01-69
	C800.01,448.56,733.34,403.79,698.16,429.5z"/>
<path class="st0" d="M819,588c6.32-7.35,57.93-69.05,40-130c-20.01-68.02-121.83-118.78-235-81c-12.03-10.83-24.42-25.08-21-37
	c7.3-25.48,83.45-28.58,135-20c31.83,5.29,92.44,21.39,156,81c61.91-10.95,119.01,2.86,146,37c14.41,18.22,20,40,20,40
	c7.78,30.32-0.16,55.77-4,66c-3.55,8.58-9.58,20.6-19.83,32.68c-49.25,58.02-135.38,46.14-139.5,45.5
	C862.37,616.83,836.18,601.3,819,588z M1015.17,510.68c1.21-44.72-68.51-93.41-103.01-69c-31.68,22.41-33.62,106.43,0,131
	C947.34,598.39,1014.01,553.62,1015.17,510.68z"/>
<path class="st1" d="M868,588"/>
<path class="st2" d="M1119,474c35.22,180.69-304.99,432.55-457,360c-25.3-12.08-57.22-38.79-80-104
	c-11.86-44.72-26.58-112.42-32-196c-7.83-120.87-12.05-185.94,20-224C662.98,199.58,1083.19,290.27,1119,474z M595,332
	c-7.92,9.42-17.85,26.46-10,137c13.88,195.41,20.82,293.12,72,325c115.46,71.93,458.6-141.43,432-304
	C1062.65,329.01,676.5,235.08,595,332z"/>
</svg>
